<svg xmlns="http://www.w3.org/2000/svg" viewBox="0 0 60 40" role="img" aria-label="United States flag">
  <rect width="60" height="40" fill="#b22234"/>
  <g fill="#fff">
    <rect y="3.08" width="60" height="3.08"/>
    <rect y="9.23" width="60" height="3.08"/>
    <rect y="15.38" width="60" height="3.08"/>
    <rect y="21.54" width="60" height="3.08"/>
    <rect y="27.69" width="60" height="3.08"/>
    <rect y="33.85" width="60" height="3.08"/>
  </g>
  <rect width="24" height="21.54" fill="#3c3b6e"/>
  <g fill="#fff">
    <circle cx="3" cy="3" r="1"/><circle cx="8" cy="3" r="1"/><circle cx="13" cy="3" r="1"/><circle cx="18" cy="3" r="1"/>
    <circle cx="5.5" cy="6" r="1"/><circle cx="10.5" cy="6" r="1"/><circle cx="15.5" cy="6" r="1"/><circle cx="20.5" cy="6" r="1"/>
    <circle cx="3" cy="9" r="1"/><circle cx="8" cy="9" r="1"/><circle cx="13" cy="9" r="1"/><circle cx="18" cy="9" r="1"/>
    <circle cx="5.5" cy="12" r="1"/><circle cx="10.5" cy="12" r="1"/><circle cx="15.5" cy="12" r="1"/><circle cx="20.5" cy="12" r="1"/>
    <circle cx="3" cy="15" r="1"/><circle cx="8" cy="15" r="1"/><circle cx="13" cy="15" r="1"/><circle cx="18" cy="15" r="1"/>
    <circle cx="5.5" cy="18" r="1"/><circle cx="10.5" cy="18" r="1"/><circle cx="15.5" cy="18" r="1"/><circle cx="20.5" cy="18" r="1"/>
  </g>
</svg>
